<?xml version="1.0" standalone="no"?>
<!DOCTYPE svg PUBLIC "-//W3C//DTD SVG 20010904//EN"
 "http://www.w3.org/TR/2001/REC-SVG-20010904/DTD/svg10.dtd">
<svg version="1.0" xmlns="http://www.w3.org/2000/svg"
 width="500.000000pt" height="300.000000pt" viewBox="0 0 500.000000 300.000000"
 preserveAspectRatio="xMidYMid meet">

<g transform="translate(0.000000,300.000000) scale(0.100000,-0.100000)"
fill="#000000" stroke="none">
<path d="M1430 2072 c0 -120 2 -221 4 -223 11 -11 86 4 86 17 0 10 8 9 33 -6
17 -11 47 -20 66 -20 44 0 118 35 133 63 l11 21 8 -22 c20 -52 118 -79 179
-47 21 11 29 12 33 2 2 -7 21 -12 43 -11 l39 1 3 109 c3 128 -11 168 -68 196
-39 20 -107 23 -160 8 -59 -17 -64 -23 -46 -58 l15 -30 42 15 c23 8 55 11 70
8 30 -7 62 -42 53 -57 -3 -4 -36 -8 -73 -8 -44 0 -74 -5 -87 -15 -28 -21 -31
-19 -37 25 -13 101 -127 161 -217 115 l-29 -15 -3 72 -3 73 -47 3 -48 3 0
-219z m236 -3 c29 -32 26 -105 -5 -130 -27 -22 -79 -25 -104 -6 -38 27 -38
117 0 144 27 21 87 16 109 -8z m312 -110 c-2 -12 -15 -31 -30 -42 -35 -26 -81
-14 -86 22 -5 31 12 41 71 41 44 0 48 -2 45 -21z"/>
<path d="M2100 2008 l0 -163 42 1 43 1 5 101 c6 111 21 142 70 142 55 0 65
-18 70 -136 l5 -107 43 -1 42 -1 0 70 0 70 23 -40 c39 -70 145 -106 207 -70
14 8 29 14 34 15 15 0 -4 -54 -26 -72 -25 -22 -95 -24 -145 -3 -20 8 -37 14
-38 13 -9 -11 -25 -49 -25 -58 0 -40 191 -59 250 -24 70 41 75 56 78 250 l3
174 -41 0 c-34 0 -43 -4 -47 -20 -5 -20 -6 -20 -25 -3 -15 13 -37 18 -83 18
-74 0 -107 -19 -142 -81 -14 -24 -23 -32 -23 -21 0 31 -29 76 -60 92 -37 19
-91 19 -137 0 -19 -8 -37 -15 -39 -15 -2 0 -4 7 -4 15 0 11 -11 15 -40 15
l-40 0 0 -162z m569 56 c44 -56 7 -124 -68 -124 -70 0 -106 77 -59 127 32 34
99 32 127 -3z"/>
<path d="M250 1600 l0 -90 151 0 150 0 -3 -219 c-3 -215 -3 -220 -27 -245 -48
-51 -120 -45 -186 15 l-42 39 -66 -78 -65 -77 26 -28 c15 -15 56 -42 92 -60
61 -30 70 -32 180 -32 100 0 122 3 168 24 59 27 105 74 136 140 20 43 21 65
24 374 l3 327 -270 0 -271 0 0 -90z"/>
<path d="M1102 1673 c-24 -47 -362 -820 -362 -828 0 -10 222 -11 238 -1 5 3
22 39 38 81 l29 75 183 -2 184 -3 32 -78 31 -78 220 0 220 0 3 109 3 108 45
45 45 44 19 -25 c10 -14 65 -83 122 -153 l103 -129 233 -1 232 -2 0 428 0 427
-237 0 -238 -1 -160 -173 -160 -173 -3 173 -2 174 -120 0 -120 0 -2 -366 -3
-367 -161 364 -161 364 -121 3 c-108 2 -122 1 -130 -15z m1376 -570 l-3 -188
-153 198 -153 197 38 44 c21 24 90 100 153 168 l115 124 3 -177 c1 -98 1 -262
0 -366z m-1190 205 l50 -128 -110 0 c-60 0 -108 4 -106 9 58 151 104 259 109
253 3 -4 29 -64 57 -134z"/>
</g>
</svg>
